<svg width="262" height="347" viewBox="0 0 262 347" fill="none" xmlns="http://www.w3.org/2000/svg">
<path d="M144.664 177.613C144.664 107.082 232.721 134.013 232.721 101.66C232.721 53.0009 248.445 13.5547 130.513 13.5547C12.5796 13.5547 28.3042 53.0009 28.3042 101.66C28.3042 134.013 124.223 119.281 124.223 182.988C124.223 253.566 28.3042 221.214 28.3042 253.566C28.3042 302.225 9.43493 341.672 130.513 341.672C259.452 341.672 232.721 302.225 232.721 253.566C232.721 221.214 144.664 248.144 144.664 177.613Z" fill="#F3EBD5"/>
<path d="M151.971 119.193C126.384 132.064 57.4912 114.352 55.5 117.5C87.5 124 103 131.604 120.5 161.5C132.5 182 129.982 213.716 129.982 245.894C129.982 278.072 90.0027 263.994 70.0129 282.094C54.0211 296.574 68.6803 318.965 78.0088 328.35H141.976C199.546 341.221 204.611 298.853 199.946 276.061L177.958 272.038C147.573 270.43 137.312 253.938 135.979 245.894L142 168C145.5 149.5 162.632 129.919 177.958 119.193C169.962 119.193 165 112.639 151.971 119.193Z" fill="#CA325D"/>
<rect y="319.891" width="261.025" height="27.1094" rx="8" fill="#F3EBD5"/>
<rect width="261.025" height="27.1094" rx="8" fill="#F3EBD5"/>
</svg>
